<svg width="24" height="24" viewBox="0 0 24 24" fill="none" xmlns="http://www.w3.org/2000/svg">
<path opacity="0.4" d="M21.5 6.5L17 2.5L14 5L8.5 6V12L12 12.5L13 10H20L21.5 6.5Z" fill="white"/>
<path d="M21.7099 8.71017C22.9599 7.46017 22.3899 6.00017 21.7099 5.29017L18.7099 2.29017C17.4499 1.04017 15.9999 1.61017 15.2899 2.29017L13.5899 4.00017H10.9999C9.09993 4.00017 7.99993 5.00017 7.43993 6.15017L2.99993 10.5902V14.5902L2.28993 15.2902C1.03993 16.5502 1.60993 18.0002 2.28993 18.7102L5.28993 21.7102C5.82993 22.2502 6.40993 22.4502 6.95993 22.4502C7.66993 22.4502 8.31993 22.1002 8.70993 21.7102L11.4099 19.0002H14.9999C16.6999 19.0002 17.5599 17.9402 17.8699 16.9002C18.9999 16.6002 19.6199 15.7402 19.8699 14.9002C21.4199 14.5002 21.9999 13.0302 21.9999 12.0002V9.00017H21.4099L21.7099 8.71017ZM19.9999 12.0002C19.9999 12.4502 19.8099 13.0002 18.9999 13.0002H17.9999V14.0002C17.9999 14.4502 17.8099 15.0002 16.9999 15.0002H15.9999V16.0002C15.9999 16.4502 15.8099 17.0002 14.9999 17.0002H10.5899L7.30993 20.2802C6.99993 20.5702 6.81993 20.4002 6.70993 20.2902L3.71993 17.3102C3.42993 17.0002 3.59993 16.8202 3.70993 16.7102L4.99993 15.4102V11.4102L6.99993 9.41017V11.0002C6.99993 12.2102 7.79993 14.0002 9.99993 14.0002C12.1999 14.0002 12.9999 12.2102 12.9999 11.0002H19.9999V12.0002ZM20.2899 7.29017L18.5899 9.00017H10.9999V11.0002C10.9999 11.4502 10.8099 12.0002 9.99993 12.0002C9.18993 12.0002 8.99993 11.4502 8.99993 11.0002V8.00017C8.99993 7.54017 9.16993 6.00017 10.9999 6.00017H14.4099L16.6899 3.72017C16.9999 3.43017 17.1799 3.60017 17.2899 3.71017L20.2799 6.69017C20.5699 7.00017 20.3999 7.18017 20.2899 7.29017Z" fill="white"/>
</svg>
