<svg width="24" height="24" viewBox="0 0 24 24" fill="none" xmlns="http://www.w3.org/2000/svg">
<path d="M20 11.5C20 16.5681 14.0282 19.9702 12.4037 20.8018C12.1468 20.9334 11.8532 20.9334 11.5963 20.8018C9.97178 19.9702 4 16.5681 4 11.5C4 7 7.87627 4 12 4C16.2667 4 20 7 20 11.5Z" stroke="white" stroke-width="2"/>
<path d="M8.97014 11.8107L11.7687 14.7565C11.8614 14.8541 11.9078 14.9029 11.9641 14.9142C11.9878 14.919 12.0122 14.919 12.0359 14.9142C12.0922 14.9029 12.1386 14.8541 12.2313 14.7565L15.0299 11.8107C15.6002 11.2103 15.6894 10.2991 15.2463 9.5995C14.5085 8.43441 12.7899 8.4922 12.132 9.70422L12.0624 9.83247C12.0355 9.88195 11.9645 9.88195 11.9376 9.83247L11.868 9.70422C11.2101 8.4922 9.49154 8.43441 8.75365 9.5995C8.31058 10.2991 8.3998 11.2103 8.97014 11.8107Z" stroke="white" stroke-width="2"/>
<path opacity="0.4" d="M20 14.0002L19 10.0001C17.5066 8.93341 16.4801 9.00642 15 9.01118C15.262 8.93881 15.688 11.312 14.5 12.5C13.5 13.5 13.4293 14.1642 12 14.5C11.0334 14.9091 9.12399 10.2287 8.30103 10.8283C6.90399 11.8461 5.75603 13.0281 5 14.0001L8 18.5002L12 21.0002L16.5 18.5002L20 14.0002Z" fill="white"/>
</svg>
