<svg width="24" height="24" viewBox="0 0 24 24" fill="none" xmlns="http://www.w3.org/2000/svg">
<path opacity="0.4" d="M18 11.5002C12.8 8.70019 7.5 11.6669 5.5 13.5002L5 15V17.5L5.5 19L8.5 20L9.5 14.5L14 14L15 17V20L18 19.5L19 17V14L18 11.5002Z" fill="white"/>
<path d="M5 11.7846C5 10.431 5 9.7542 5.27446 9.15928C5.54892 8.56435 6.06437 8.12388 7.09525 7.24295L8.09525 6.38841C9.95857 4.79614 10.8902 4 12 4C13.1098 4 14.0414 4.79614 15.9047 6.38841L16.9047 7.24295C17.9356 8.12388 18.4511 8.56435 18.7255 9.15928C19 9.7542 19 10.431 19 11.7846V16.0122C19 17.892 19 18.832 18.4142 19.416C17.8284 20 16.8856 20 15 20H9C7.11438 20 6.17157 20 5.58579 19.416C5 18.832 5 17.892 5 16.0122V11.7846Z" stroke="white" stroke-width="2"/>
<path d="M15 20V15C15 14.4477 14.5523 14 14 14H10C9.44772 14 9 14.4477 9 15V20" stroke="white" stroke-width="2" stroke-linecap="round" stroke-linejoin="round"/>
</svg>
