<svg width="24" height="22" viewBox="0 0 24 22" fill="none" xmlns="http://www.w3.org/2000/svg">
<path d="M12 6V4C12 2.9 11.1 2 10 2H4C2.9 2 2 2.9 2 4V18C2 19.1 2.9 20 4 20H20C21.1 20 22 19.1 22 18V8C22 6.9 21.1 6 20 6H12ZM6 18H4V16H6V18ZM6 14H4V12H6V14ZM6 10H4V8H6V10ZM6 6H4V4H6V6ZM10 18H8V16H10V18ZM10 14H8V12H10V14ZM10 10H8V8H10V10ZM10 6H8V4H10V6ZM19 18H12V16H14V14H12V12H14V10H12V8H19C19.55 8 20 8.45 20 9V17C20 17.55 19.55 18 19 18ZM18 10H16V12H18V10ZM18 14H16V16H18V14Z" fill="white"/>
<path opacity="0.4" d="M20 12C14.1714 12.0002 6.88571 12 3 12V19H20V12Z" fill="white"/>
</svg>
