<svg width="24" height="24" viewBox="0 0 24 24" fill="none" xmlns="http://www.w3.org/2000/svg">
<path opacity="0.4" d="M7 12H2.5L2 20L4 22H19.5L22.5 20V12.5H17.5L14 15.5H10.5L7 12Z" fill="white"/>
<path fill-rule="evenodd" clip-rule="evenodd" d="M5.09091 2C5.09091 1.44772 5.53862 1 6.09091 1H17.9091C18.4614 1 18.9091 1.44772 18.9091 2V9.27273C18.9091 9.82501 18.4614 10.2727 17.9091 10.2727C17.3568 10.2727 16.9091 9.82501 16.9091 9.27273V3H7.09091V9.27273C7.09091 9.82501 6.64319 10.2727 6.09091 10.2727C5.53862 10.2727 5.09091 9.82501 5.09091 9.27273V2ZM8.72727 5.63636C8.72727 5.08408 9.17499 4.63636 9.72727 4.63636H14.2727C14.825 4.63636 15.2727 5.08408 15.2727 5.63636C15.2727 6.18865 14.825 6.63636 14.2727 6.63636H9.72727C9.17499 6.63636 8.72727 6.18865 8.72727 5.63636ZM3.10521 6.47396C3.64677 6.58228 3.99798 7.1091 3.88967 7.65066L3.2198 11H7C7.44365 11 7.83389 11.2922 7.95916 11.7171C7.95953 11.7183 7.96022 11.7205 7.96124 11.7236C7.96461 11.7338 7.97157 11.7543 7.98259 11.7835C8.00471 11.8421 8.04275 11.9347 8.10039 12.0499C8.21635 12.2819 8.40687 12.5962 8.6987 12.9105C9.26117 13.5162 10.2512 14.1818 12 14.1818C13.7488 14.1818 14.7388 13.5162 15.3013 12.9105C15.5931 12.5962 15.7837 12.2819 15.8996 12.0499C15.9572 11.9347 15.9953 11.8421 16.0174 11.7835C16.0284 11.7543 16.0354 11.7338 16.0388 11.7236C16.0398 11.7205 16.0405 11.7183 16.0408 11.7171C16.1661 11.2922 16.5564 11 17 11H20.7802L20.1103 7.65066C20.002 7.1091 20.3532 6.58228 20.8948 6.47396C21.4364 6.36565 21.9632 6.71687 22.0715 7.25843L22.9806 11.8039C22.9935 11.8685 23 11.9341 23 12V19.2727C23 20.2798 22.5065 21.2031 21.8548 21.8548C21.2031 22.5065 20.2798 23 19.2727 23H4.72727C3.72022 23 2.79688 22.5065 2.14517 21.8548C1.49346 21.2031 1 20.2798 1 19.2727V12C1 11.9341 1.0065 11.8685 1.01942 11.8039L1.92851 7.25843C2.03682 6.71687 2.56365 6.36565 3.10521 6.47396ZM3 19.2727C3 19.6293 3.18836 20.0696 3.55938 20.4406C3.9304 20.8116 4.37069 21 4.72727 21H19.2727C19.6293 21 20.0696 20.8116 20.4406 20.4406C20.8116 20.0696 21 19.6293 21 19.2727V13H17.6602C17.4765 13.3572 17.1913 13.8143 16.7669 14.2714C15.8521 15.2565 14.3421 16.1818 12 16.1818C9.65787 16.1818 8.14792 15.2565 7.23312 14.2714C6.80867 13.8143 6.52354 13.3572 6.33976 13H3V19.2727ZM8.72727 9.27273C8.72727 8.72044 9.17499 8.27273 9.72727 8.27273H14.2727C14.825 8.27273 15.2727 8.72044 15.2727 9.27273C15.2727 9.82501 14.825 10.2727 14.2727 10.2727H9.72727C9.17499 10.2727 8.72727 9.82501 8.72727 9.27273Z" fill="white"/>
</svg>
