<svg width="187" height="365" viewBox="0 0 187 365" fill="none" xmlns="http://www.w3.org/2000/svg">
<path d="M186.84 95.5475C188.83 55.8237 172.591 -5.20155 121.001 0.354377C95.127 3.14359 71.0623 17.6295 59.3692 41.1803C57.4242 45.0717 55.8636 49.0981 54.5518 53.1919C46.9298 57.0833 40.0994 61.7395 34.3094 66.8906C12.8457 86.0102 2.98461 107.694 0.519337 136.531C-1.83285 164.108 3.57265 194.722 21.5081 216.608C36.4354 234.806 58.8943 239.304 81.0365 235.705C83.0947 247.132 85.7861 258.491 88.7038 269.693C88.7942 270.053 88.8847 270.413 88.9752 270.75C69.253 275.722 49.0784 282.11 28.6551 279.253C20.6486 278.128 14.067 276.464 10.4031 287.913C8.18657 294.819 13.5468 303.681 21.6212 304.806C45.7311 308.18 67.7376 306.605 91.2595 300.914C92.9784 300.487 94.7199 300.082 96.4388 299.677C100.872 318.01 104.332 336.567 104.038 355.574C103.812 370.622 142.148 366.438 142.012 351.593C141.854 331.393 136.969 312.026 130.794 292.929C140.61 291.67 150.539 291.152 160.807 291.939C180.055 293.379 173.382 258.019 162.345 258.266C148.549 258.581 134.504 260.696 120.662 263.508C116.41 251.316 112.361 239.102 109.376 226.753C157.641 203.719 184.239 147.35 186.84 95.615V95.5475ZM55.0946 200.795C39.6923 190.651 31.0978 171.374 30.2157 154.323C28.9717 130.143 28.9039 104.545 44.8038 86.0102C46.2739 84.3007 47.8797 82.7261 49.5308 81.2415C49.1915 86.1901 49.0784 91.1387 49.1011 96.0873C49.2141 113.992 72.8039 105.107 72.5777 94.3553C72.1932 85.2679 72.3063 76.0005 74.093 67.4304C83.4792 64.0564 93.6117 61.7395 103.586 59.4452C109.919 58.0056 114.058 40.4605 98.1803 41.4278C94.6294 41.6302 91.1238 42.0351 87.7086 42.5749C90.6714 39.9657 94.1545 37.6488 98.2934 35.7144C111.004 29.7311 134.843 30.046 144.319 41.8327C152.054 51.4374 154.882 61.3796 156.307 73.7511C161.373 117.839 144.794 166.11 105.644 190.403C105.305 190.606 104.965 190.808 104.626 191.033C104.581 185.522 104.898 179.966 105.644 174.343C106.707 166.335 100.872 161.004 93.5438 161.004C84.5422 161.004 79.6343 167.887 78.5486 175.917C77.3273 185.027 77.0107 194.137 77.3499 203.202C69.2982 205.092 61.4048 205.002 55.0946 200.84V200.795Z" fill="#5F4083"/>
</svg>
