<svg width="320" height="266" viewBox="0 0 320 266" fill="none" xmlns="http://www.w3.org/2000/svg">
<path fill-rule="evenodd" clip-rule="evenodd" d="M325.969 0.627283C332.81 1.18357 337.893 7.16941 337.324 13.997C329.737 104.928 277.441 174.998 226.745 221.265C198.023 247.478 154.603 269.833 109.401 272.831C63.3579 275.884 15.9267 258.712 -18.0077 206.852C-21.7578 201.121 -20.137 193.433 -14.3878 189.681C-8.6385 185.928 -0.937818 187.532 2.81219 193.263C31.4783 237.071 70.0153 250.584 107.797 248.078C146.42 245.517 184.682 226.068 209.988 202.973C258.162 159.006 305.682 94.3216 312.552 11.9825C313.122 5.15488 319.129 0.0709842 325.969 0.627283Z" fill="#5F4083"/>
</svg>
