<svg width="431" height="201" viewBox="0 0 431 201" fill="none" xmlns="http://www.w3.org/2000/svg">
<path fill-rule="evenodd" clip-rule="evenodd" d="M423.373 1.28606C430.027 4.43703 432.865 12.3839 429.714 19.036C387.742 107.629 308.793 158.301 240.445 185.635C201.722 201.122 149.71 207.16 103.224 193.051C55.8727 178.68 14.7718 143.438 0.320275 78.417C-1.27672 71.2316 3.25446 64.1124 10.4409 62.5156C17.6274 60.9189 24.7479 65.4493 26.3449 72.6347C38.5528 127.561 72.1124 155.753 110.967 167.545C150.687 179.6 196.426 174.532 230.544 160.887C295.493 134.911 367.614 87.8473 405.621 7.62532C408.772 0.973278 416.72 -1.86491 423.373 1.28606Z" fill="#35BC8B"/>
</svg>
