<svg width="459" height="215" viewBox="0 0 459 215" fill="none" xmlns="http://www.w3.org/2000/svg">
<path fill-rule="evenodd" clip-rule="evenodd" d="M8.12206 213.624C1.03667 210.254 -1.98636 201.754 1.36985 194.638C46.0687 99.874 130.146 45.6734 202.934 16.4348C244.173 -0.130651 299.564 -6.58875 349.07 8.50252C399.498 23.8746 443.269 61.5711 458.659 131.121C460.36 138.807 455.534 146.422 447.881 148.13C440.227 149.838 432.644 144.992 430.944 137.306C417.943 78.5539 382.203 48.3988 340.824 35.7849C298.523 22.8903 249.813 28.312 213.479 42.9072C144.31 70.6919 67.5034 121.034 27.0282 206.844C23.672 213.959 15.2074 216.995 8.12206 213.624Z" fill="#C5A3EC"/>
</svg>
