<svg width="38" height="35" viewBox="0 0 38 35" fill="none" xmlns="http://www.w3.org/2000/svg">
<path d="M38 15.75C38 14.8217 37.636 13.9315 36.9882 13.2751C36.3403 12.6187 35.4617 12.25 34.5455 12.25H23.6291L25.2873 4.2525C25.3218 4.0775 25.3391 3.885 25.3391 3.6925C25.3391 2.975 25.0455 2.31 24.5791 1.8375L22.7482 0L11.3827 11.515C10.7436 12.1625 10.3636 13.0375 10.3636 14V31.5C10.3636 32.4283 10.7276 33.3185 11.3754 33.9749C12.0233 34.6312 12.902 35 13.8182 35H29.3636C30.7973 35 32.0236 34.125 32.5418 32.865L37.7582 20.5275C37.9136 20.125 38 19.705 38 19.25V15.75ZM0 35H6.90909V14H0V35Z" fill="#8454BD"/>
</svg>
