<svg width="650" height="441" viewBox="0 0 650 441" fill="none" xmlns="http://www.w3.org/2000/svg">
<path d="M185.871 252.74C177.114 229.993 163.921 212.912 144.364 198.955C130.673 189.168 115.602 181.425 101.03 173.898C91.1272 168.797 80.8752 163.513 71.3045 157.698C56.0346 148.443 37.7073 132.99 37.159 112.087C36.8433 100.556 41.5289 88.9582 49.9532 80.3013C58.7429 71.279 70.5734 66.2776 83.2513 66.2776H83.2679C96.1119 66.2776 110.285 72.3424 119.357 81.7303C122.398 84.8375 123.761 89.2406 122.88 93.4943C121.883 98.3295 117.48 101.852 114.024 103.813C105.384 109.578 105.384 109.578 105.384 112.453C105.384 114.713 105.384 116.989 108.142 120.146C109.886 122.157 112.163 123.652 114.639 124.649C127.566 129.8 142.736 125.762 152.705 114.065C163.522 101.403 164.769 84.2891 155.962 69.3847C140.759 43.6302 105.118 27.2969 73.0824 31.4176C43.1407 35.2392 18.2169 53.5499 6.45295 80.401C-5.02859 106.538 -1.02418 135.798 17.1535 158.695C33.4537 179.215 56.7989 191.262 79.3632 202.909C84.0322 205.319 88.8674 207.811 93.5032 210.304C108.241 218.262 126.652 229.678 138.516 247.506C153.088 269.389 158.172 295.958 151.758 316.811C145.76 336.351 127.616 352.236 106.646 356.373C96.411 358.4 86.4249 357.736 79.978 354.612C72.1353 350.824 60.4876 340.372 56.4167 331.449C50.651 319.918 50.6677 306.542 57.0481 289.511C57.5134 288.248 58.2112 287.085 58.9589 285.972C61.8667 281.519 63.0132 276.684 62.1326 272.43C61.3682 268.708 59.042 265.618 55.6025 263.69C47.1285 258.971 36.8267 261.364 30.5293 269.539C18.9647 293.997 18.9647 311.294 20.809 327.229C24.8134 350.857 37.0593 370.015 56.2506 382.593C67.9149 390.236 81.8722 393.144 95.331 393.144C106.115 393.144 116.583 391.283 125.273 388.541C152.606 379.918 176.233 360.245 186.951 337.199C197.867 313.72 197.468 282.965 185.871 252.79V252.74Z" fill="#5F4083"/>
<path d="M415.8 316.977C411.231 309.267 403.055 310.53 396.492 311.56C394.997 311.793 393.402 312.158 391.856 312.524C387.719 313.488 383.449 314.485 381.04 312.89C379.893 312.125 379.129 310.746 378.763 308.702C377.068 299.414 376.022 288.348 375.423 273.859C374.327 247.423 373.712 224.693 374.177 199.62C374.393 187.673 374.775 175.493 375.141 163.713C376.204 129.634 377.301 94.3749 374.726 59.8805C373.33 41.0381 371.353 22.8936 362.862 7.74001C357.944 -1.01653 352.427 -0.318663 350.3 0.379201C345.266 2.02417 341.81 8.55418 342.607 14.8848C343.388 21.0825 344.584 41.3372 345.382 54.7129C345.615 58.5346 345.781 61.7248 345.93 63.7353C347.392 86.4325 347.11 108.382 346.595 134.685C346.379 145.768 346.08 156.884 345.797 167.983C344.668 211.051 343.504 255.598 346.828 299.298L346.877 300.178C348.007 315 349.17 330.336 362.978 339.99C368.744 344.028 374.642 345.54 380.558 345.54C390.361 345.54 400.115 341.319 409.137 337.464L410.4 336.916C413.424 335.62 415.717 332.945 416.896 329.389C418.276 325.169 417.844 320.4 415.8 316.927V316.977Z" fill="#5F4083"/>
<path d="M495.788 88.077C481.598 81.6633 466.578 81.7132 453.534 88.1934C439.76 95.0557 429.74 108.332 426.035 124.665C420.17 150.469 421.582 177.703 423.759 200.932C426.101 226.055 430.089 251.111 434.21 275.537C428.926 277.032 421.582 279.059 412.56 281.07C404.252 282.931 403.205 306.293 415.318 303.85C415.318 303.85 428.743 301.873 438.447 299.696C441.953 318.522 445.841 338.062 444.977 357.12C444.827 360.56 446.855 363.883 450.577 366.226C453.418 368.02 457.339 369.233 461.194 369.233C463.637 369.233 466.046 368.751 468.156 367.622C470.765 366.226 473.889 363.285 474.021 357.253C474.387 341.036 471.712 324.636 469.103 308.768L468.223 303.468C467.674 300.145 467.109 296.838 466.578 293.532C474.354 292.402 482.213 291.77 490.222 291.538C506.755 291.073 502.567 264.238 490.072 264.62C480.718 264.919 471.512 266.365 462.357 268.325C460.413 256.777 458.469 244.997 456.758 233.333C453.983 214.307 450.826 189.251 451.025 164.161V163.214C451.141 147.761 451.324 124.383 466.877 116.972C476.132 112.569 487.862 109.279 500.175 121.109C508.881 129.5 514.581 144.155 514.581 152.812C514.581 161.453 517.455 164.344 523.221 167.218C530.981 169.212 532.193 168.082 534.221 160.605C534.57 159.342 534.819 158.013 534.902 156.7C537.062 125.845 522.772 100.29 495.788 88.0937V88.077Z" fill="#5F4083"/>
<path d="M650 314.152C650 310.081 648.089 300.444 647.126 296.872C646.793 295.675 644.567 286.537 644.251 285.34C642.722 279.741 642.473 273.959 641.975 269.14C640.811 258.173 639.765 245.911 639.698 232.951C642.191 223.978 643.221 215.305 642.872 206.781C642.523 198.656 637.804 197.227 635.029 197.094C627.585 196.712 617.001 204.853 616.27 210.121C614.991 219.176 614.276 228.115 614.126 237.354C609.408 250.547 601.033 262.527 591.595 275.088C583.67 285.656 572.869 293.731 561.222 297.869C556.204 299.63 552.748 299.231 550.637 296.589C544.091 288.431 542.712 273.792 542.429 267.861C541.183 242.754 547.63 221.203 561.587 203.773C567.652 196.196 576.674 190.049 584.6 188.121C595.434 185.496 598.358 184.781 605.104 194.352C606.716 196.645 609.574 197.709 613.13 197.36C618.397 196.861 625.458 193.056 628.2 186.991C629.463 184.216 630.227 179.896 626.754 175.144C616.719 161.32 602.911 154.275 587.857 155.272C575.146 156.152 565.226 160.722 554.758 170.608C531.878 192.225 517.738 222.034 514.947 254.584C512.72 280.555 519.267 321.53 546.467 328.06C548.959 328.658 551.501 328.957 554.06 328.957C568.367 328.957 583.852 319.635 600.169 301.175C606.417 294.114 612.099 286.171 617.034 278.611C617.749 283.712 618.629 288.996 619.643 294.496C619.826 295.459 619.992 296.473 620.191 297.503C622.335 309.683 624.993 324.82 637.721 328.309C645.215 330.353 650 322.792 650 314.152Z" fill="#5F4083"/>
<path d="M343.022 208.276C344.734 173.981 330.793 121.292 286.495 126.094C264.28 128.503 243.61 141.015 233.574 161.336C231.896 164.693 230.566 168.165 229.437 171.705C222.89 175.061 217.025 179.082 212.056 183.535C193.63 200.035 185.155 218.761 183.045 243.651C181.018 267.462 185.671 293.881 201.073 312.79C213.884 328.491 233.175 332.38 252.184 329.272C253.945 339.142 256.255 348.946 258.764 358.616C258.847 358.932 258.913 359.231 258.996 359.53C242.065 363.817 224.734 369.333 207.205 366.874C200.326 365.91 194.676 364.465 191.536 374.351C189.625 380.316 194.228 387.96 201.173 388.94C221.876 391.848 240.769 390.485 260.973 385.583C262.452 385.218 263.948 384.869 265.426 384.52C269.232 400.355 272.206 416.373 271.957 432.772C271.757 445.766 304.673 442.144 304.557 429.333C304.424 411.903 300.22 395.171 294.92 378.688C303.344 377.608 311.868 377.159 320.691 377.84C337.223 379.087 331.491 348.547 322.003 348.763C310.156 349.029 298.093 350.856 286.213 353.282C282.557 342.764 279.085 332.213 276.526 321.546C317.966 301.657 340.812 252.989 343.039 208.326V208.276H343.022ZM229.902 299.148C216.676 290.391 209.298 273.742 208.534 259.021C207.471 238.151 207.404 216.052 221.062 200.051C222.325 198.572 223.704 197.21 225.117 195.93C224.817 200.201 224.734 204.471 224.751 208.741C224.851 224.194 245.105 216.534 244.906 207.246C244.574 199.403 244.673 191.394 246.202 184C254.261 181.093 262.967 179.082 271.524 177.105C276.958 175.859 280.514 160.722 266.889 161.552C263.831 161.735 260.824 162.084 257.9 162.549C260.442 160.29 263.433 158.296 266.988 156.634C277.905 151.467 298.376 151.732 306.501 161.918C313.147 170.209 315.573 178.8 316.803 189.467C321.156 227.534 306.916 269.206 273.302 290.175C273.003 290.358 272.721 290.524 272.422 290.724C272.389 285.972 272.654 281.17 273.302 276.318C274.216 269.406 269.198 264.803 262.918 264.803C255.191 264.803 250.971 270.752 250.04 277.68C248.993 285.54 248.728 293.416 249.01 301.242C242.098 302.87 235.319 302.787 229.902 299.198V299.148Z" fill="#35BC8B"/>
</svg>
