<svg width="37" height="11" viewBox="0 0 37 11" fill="none" xmlns="http://www.w3.org/2000/svg">
<path fill-rule="evenodd" clip-rule="evenodd" d="M36.4959 3.81999C36.5954 6.02689 34.887 7.89656 32.6801 7.99602C28.0513 8.20463 24.8347 8.77246 21.3726 9.38363C20.9128 9.4648 20.4486 9.54673 19.9763 9.62869C15.878 10.3398 11.409 11.0001 4.5 11.0001C2.29086 11.0001 0.5 9.20921 0.5 7.00008C0.5 4.79094 2.29086 3.00008 4.5 3.00008C10.7985 3.00008 14.7823 2.41037 18.6086 1.74646C19.0605 1.66805 19.5134 1.58793 19.97 1.50714C23.4495 0.891538 27.1478 0.237227 32.3199 0.00413155C34.5268 -0.0953291 36.3965 1.61309 36.4959 3.81999Z" fill="#097869"/>
</svg>
